<?xml version="1.0" encoding="UTF-8"?><svg id="Layer_1" xmlns="http://www.w3.org/2000/svg" viewBox="0 0 160.59 124.64"><path d="m107.39,89.79c.59.05,1.15-.29,1.67-1.01l5.12-6.94c.05-.07.1-.13.17-.18.04-.03.09-.06.14-.08.12-.06.25-.08.39-.08h12.02c3.1-.1,4.79-1.63,5.07-4.58,0-.03,0-.07,0-.11V22.69c0-3.53-1.69-5.34-5.06-5.46h-43.4c-3.36.11-5.04,1.93-5.04,5.46v54.12s0,.07,0,.1c.27,2.96,1.96,4.49,5.07,4.58h22.05c.23,0,.46.07.63.24h0c.2.2.3.42.3.67v6.38c.02.61.3.94.86,1.01m-18.24-21.8l22.58-32.03h-22.58v-5.06h31.63l-22.63,32.09h22.84v5.01h-31.83Z" style="fill:#fff;"/><path d="m34.81,59.75c2.97,2.77,6.64,4.16,11,4.16,4.01,0,7.48-1.41,10.39-4.24,2.89-2.89,4.33-6.29,4.33-10.22s-1.47-7.56-4.42-10.39c-2.97-2.8-6.61-4.2-10.91-4.2s-7.61,1.43-10.52,4.29c-2.94,2.86-4.42,6.29-4.42,10.31s1.51,7.48,4.55,10.31" style="fill:#fff;"/><path d="m22.38,81.5h46.71c3.12-.1,4.81-1.64,5.08-4.64V22.69c0-3.53-1.69-5.34-5.06-5.46H22.34c-3.36.11-5.04,1.93-5.04,5.46v54.17c.25,2.99,1.95,4.54,5.08,4.64m8.66-46.09c4.04-3.81,8.89-5.72,14.55-5.72s10.32,1.92,14.33,5.76c3.98,3.87,5.98,8.46,5.98,13.77,0,5.57-1.96,10.31-5.89,14.2-3.95,3.87-8.82,5.8-14.59,5.8s-10.48-1.95-14.46-5.85c-3.98-3.93-5.98-8.65-5.98-14.16s2.02-9.97,6.06-13.81" style="fill:#fff;"/><path d="m42.48,92.32c-.71.58-1.43,1.54-2.17,2.86v-3.3h-3.28v15.84h3.32v-8.77c0-1.15.39-2.14,1.17-2.94.74-.81,1.68-1.21,2.84-1.21.19,0,.61.07,1.25.21l1.04-3.32c-.61-.18-1.08-.27-1.4-.27-1.14,0-2.07.3-2.78.9" style="fill:#fff;"/><path d="m25.37,91.42c-2.23,0-4.18.86-5.87,2.57-1.67,1.66-2.5,3.56-2.5,5.72,0,2.28.83,4.26,2.5,5.93,1.77,1.68,3.81,2.53,6.12,2.53,2.16,0,4.08-.84,5.78-2.53,1.68-1.73,2.53-3.7,2.53-5.93s-.84-4.15-2.53-5.78c-1.73-1.67-3.74-2.51-6.03-2.51m3.8,11.88c-1.09,1.03-2.3,1.54-3.65,1.54-1.45,0-2.69-.49-3.74-1.48-1.03-1-1.54-2.17-1.54-3.51s.52-2.57,1.54-3.59c1.04-1.04,2.29-1.57,3.74-1.57s2.62.51,3.65,1.52c1.02.99,1.52,2.17,1.52,3.55s-.51,2.53-1.52,3.53" style="fill:#fff;"/><path d="m138.1,105.09c-1.21,0-2.32-.34-3.34-1.02-1.07-.79-1.75-1.99-2.02-3.59h13.48c.04-2.7-.75-4.88-2.38-6.53-1.6-1.68-3.54-2.53-5.82-2.53s-4.31.84-5.91,2.51c-1.6,1.63-2.4,3.55-2.4,5.78,0,2.39.79,4.41,2.36,6.05,1.6,1.6,3.58,2.4,5.95,2.4,3.05,0,5.49-1.18,7.33-3.55l-2.48-1.86c-1.24,1.56-2.82,2.34-4.76,2.34m-.08-10.56c2.09,0,3.67,1.09,4.74,3.26h-9.66c.95-2.17,2.59-3.26,4.93-3.26" style="fill:#fff;"/><path d="m60.93,95.26c-1.52-2.56-3.59-3.84-6.22-3.84-2.02,0-3.75.84-5.2,2.51-1.47,1.6-2.21,3.53-2.21,5.78s.76,4.27,2.28,5.97c1.47,1.66,3.22,2.48,5.24,2.48,2.46,0,4.5-1.16,6.12-3.49v2.96c0,1.28-.46,2.37-1.38,3.28-.85.88-1.91,1.31-3.17,1.31-1.82,0-3.26-.86-4.3-2.59h-3.4c.64,1.86,1.64,3.25,3.01,4.15,1.42.92,2.96,1.38,4.61,1.38,2.17,0,4.04-.79,5.61-2.38,1.54-1.56,2.32-3.47,2.32-5.72v-15.2h-3.3v3.38Zm-1.82,8.27c-1,1-2.2,1.52-3.59,1.57h-.21c-1.43,0-2.69-.52-3.76-1.57-1.03-1.07-1.54-2.34-1.54-3.82,0-1.35.52-2.54,1.56-3.57,1.06-1.06,2.3-1.59,3.74-1.59h.27c1.36.07,2.56.58,3.59,1.52.97.97,1.46,2.21,1.46,3.69s-.51,2.73-1.52,3.76" style="fill:#fff;"/><rect x="106.54" y="91.9" width="3.36" height="15.82" style="fill:#fff;"/><polygon points="113.65 91.88 113.65 94.8 123.11 94.8 113.45 107.72 128.52 107.72 128.52 104.8 119.12 104.8 128.6 91.88 113.65 91.88" style="fill:#fff;"/><path d="m80.91,95.12c-.6-1.09-1.47-1.96-2.61-2.63-1.11-.71-2.29-1.06-3.53-1.06-1.99,0-3.73.83-5.22,2.5-1.52,1.63-2.28,3.55-2.28,5.78,0,2.35.74,4.35,2.23,5.99,1.48,1.64,3.27,2.46,5.38,2.46,2.38,0,4.38-1.2,6.01-3.61v3.17h3.36v-15.84h-3.36v3.24Zm-1.8,8.47c-1.02.97-2.2,1.48-3.55,1.5h-.19c-1.49,0-2.73-.5-3.72-1.5-1.06-1.07-1.59-2.37-1.59-3.88,0-1.35.53-2.54,1.59-3.57,1.07-1.03,2.31-1.54,3.72-1.54h.19c1.35.07,2.53.58,3.55,1.54,1,1.03,1.5,2.27,1.5,3.72s-.5,2.66-1.5,3.74" style="fill:#fff;"/><path d="m100.99,92.84c-1-.95-2.23-1.42-3.67-1.42-.92,0-1.78.28-2.59.84-.78.47-1.66,1.23-2.63,2.27v-2.65h-3.24v15.84h3.32v-8.62c0-1.31.4-2.43,1.19-3.38.77-.99,1.73-1.48,2.88-1.48.83,0,1.56.31,2.17.94.5.53.75,1.21.75,2.05v10.5h3.4v-11.46c0-1.35-.53-2.49-1.59-3.42" style="fill:#fff;"/><rect x="137.06" y="17.84" width="6.62" height="50.14" style="fill:#fff;"/><path d="m140.36,81c1.38,0,2.52-.48,3.42-1.43.97-.92,1.45-2.04,1.45-3.35,0-.18,0-.37-.02-.57-.11-1.1-.59-2.06-1.43-2.88-.66-.64-1.44-1.04-2.36-1.21-.34-.05-.7-.07-1.06-.07-.33,0-.66.02-.98.07-.89.16-1.68.57-2.39,1.21-.84.82-1.31,1.78-1.43,2.88-.02.2-.02.39-.02.57,0,1.31.48,2.43,1.45,3.35.97.95,2.09,1.43,3.37,1.43" style="fill:#fff;"/><rect width="160.59" height="124.64" style="fill:none;"/></svg>