<?xml version="1.0" encoding="UTF-8"?><svg id="Camada_2" xmlns="http://www.w3.org/2000/svg" xmlns:xlink="http://www.w3.org/1999/xlink" viewBox="0 0 273.53 280.55"><defs><style>.cls-1{fill:#fea4ff;}.cls-2{fill:#feb2ff;}.cls-3{fill:#fff;}.cls-4{fill:#f652fe;}.cls-5{fill:url(#Gradiente_sem_nome_44);}.cls-6{fill:#fecdff;}.cls-7{fill:#d53cef;}.cls-8{fill:#7f30fc;}.cls-9{fill:#fff1ff;}.cls-10{fill:#b93df5;}.cls-11{fill:#5c1ee8;}.cls-12{fill:url(#Gradiente_sem_nome_44-2);}.cls-13{fill:#fed2ff;}</style><radialGradient id="Gradiente_sem_nome_44" cx="244.56" cy="45.13" fx="244.56" fy="45.13" r="224.51" gradientUnits="userSpaceOnUse"><stop offset=".1" stop-color="#555"/><stop offset="1" stop-color="#111"/></radialGradient><radialGradient id="Gradiente_sem_nome_44-2" cx="418.43" cy="-356.75" fx="418.43" fy="-356.75" r="71.84" gradientTransform="translate(-209.54 579.06) scale(.87 1)" xlink:href="#Gradiente_sem_nome_44"/></defs><g id="Camada_1-2"><path class="cls-5" d="m129.52,3.27C88.48,12.86,55.94,44.58,45.41,85.38c-5.11,19.81-5.07,39.08-.99,56.8.52,2.28-1.19,4.45-3.52,4.45h-.05c-23.11,0-41.74,19.19-40.82,42.51.82,20.81,17.51,37.87,38.29,39.12.02,0,.04,0,.06,0,3.11.18,6.08-1.44,7.6-4.16,7.12-12.75,20.76-21.39,36.37-21.39h49.34c16.88,0,31.44,10.11,37.97,24.59,1.06,2.34,3.53,3.72,6.07,3.32,54.84-8.75,97.24-56.32,97.8-113.42.73-73.76-67.38-131.84-144.01-113.94Z"/><rect class="cls-12" x="46.15" y="208.15" width="121.75" height="72.41" rx="36.2" ry="36.2"/><path class="cls-3" d="m61.4,249.13v-11.5c0-3.53.96-6.12,2.89-7.77,1.92-1.65,4.43-2.47,7.53-2.47s5.79.77,7.83,2.3c2.04,1.53,3.06,3.65,3.06,6.34,0,1.24-.26,2.09-.78,2.54-.52.45-1.39.67-2.6.67-2.17,0-3.3-.68-3.39-2.04-.09-2.6-1.37-3.91-3.86-3.91s-3.91,1.45-3.91,4.34v11.5c0,2.89,1.32,4.34,3.95,4.34.81,0,1.48-.13,2.02-.39.54-.26.92-.66,1.15-1.19.23-.54.38-.98.46-1.32.07-.35.14-.82.2-1.43.12-1.36,1.23-2.04,3.34-2.04,1.24,0,2.13.22,2.65.67.52.45.78,1.3.78,2.54,0,2.81-1.02,5.02-3.06,6.64-2.04,1.62-4.65,2.43-7.83,2.43s-5.61-.82-7.53-2.47c-1.92-1.65-2.89-4.24-2.89-7.77Z"/><path class="cls-3" d="m83.97,256.33c0-.09.03-.25.09-.48l8.07-26.48c.23-.72.76-1.28,1.58-1.67s1.77-.59,2.84-.59,2.02.2,2.84.59,1.35.95,1.58,1.67l8.12,26.48c.06.23.09.39.09.48,0,.75-.47,1.4-1.41,1.95-.94.55-1.92.82-2.93.82-1.24,0-1.98-.42-2.21-1.26l-1.48-5.43h-9.16l-1.48,5.43c-.23.84-.97,1.26-2.21,1.26-1.01,0-1.99-.27-2.93-.82-.94-.55-1.41-1.2-1.41-1.95Zm9.42-9.12h6.34l-3.17-11.63-3.17,11.63Z"/><path class="cls-3" d="m111.71,257.03v-27.61c0-.67.33-1.17,1-1.52.67-.35,1.46-.52,2.39-.52s1.72.17,2.39.52c.67.35,1,.85,1,1.52v23.79h9.9c.61,0,1.09.29,1.43.87.35.58.52,1.27.52,2.08s-.17,1.5-.52,2.08c-.35.58-.82.87-1.43.87h-13.72c-.81,0-1.5-.18-2.08-.54-.58-.36-.87-.88-.87-1.54Z"/><path class="cls-3" d="m132.24,249.13v-11.5c0-3.53.96-6.12,2.89-7.77,1.92-1.65,4.43-2.47,7.53-2.47s5.79.77,7.83,2.3c2.04,1.53,3.06,3.65,3.06,6.34,0,1.24-.26,2.09-.78,2.54-.52.45-1.39.67-2.6.67-2.17,0-3.3-.68-3.39-2.04-.09-2.6-1.37-3.91-3.86-3.91s-3.91,1.45-3.91,4.34v11.5c0,2.89,1.32,4.34,3.95,4.34.81,0,1.48-.13,2.02-.39.54-.26.92-.66,1.15-1.19.23-.54.38-.98.46-1.32.07-.35.14-.82.2-1.43.12-1.36,1.23-2.04,3.34-2.04,1.24,0,2.13.22,2.65.67.52.45.78,1.3.78,2.54,0,2.81-1.02,5.02-3.06,6.64-2.04,1.62-4.65,2.43-7.83,2.43s-5.61-.82-7.53-2.47c-1.92-1.65-2.89-4.24-2.89-7.77Z"/><path class="cls-3" d="m14.33,189.96v-11.5c0-3.53.97-6.12,2.91-7.77,1.94-1.65,4.51-2.47,7.73-2.47s5.83.82,7.77,2.47c1.94,1.65,2.91,4.24,2.91,7.77v11.5c0,3.53-.97,6.12-2.91,7.77-1.94,1.65-4.53,2.47-7.77,2.47s-5.79-.82-7.73-2.47c-1.94-1.65-2.91-4.24-2.91-7.77Zm6.77,0c0,2.89,1.29,4.34,3.86,4.34s3.91-1.45,3.91-4.34v-11.5c0-2.89-1.3-4.34-3.91-4.34s-3.86,1.45-3.86,4.34v11.5Z"/><path class="cls-3" d="m37.77,198.16c0-.75.25-1.55.74-2.39l12.24-21.66h-10.07c-.64,0-1.14-.29-1.5-.87-.36-.58-.54-1.27-.54-2.08s.17-1.5.52-2.08c.35-.58.85-.87,1.52-.87h16.75c1.3,0,1.95.59,1.95,1.78,0,.69-.25,1.49-.74,2.39l-12.24,21.66h11.81c.61,0,1.1.3,1.48.91.38.61.56,1.29.56,2.04s-.19,1.43-.56,2.04c-.38.61-.87.91-1.48.91h-18.49c-1.3,0-1.95-.59-1.95-1.78Z"/><path class="cls-3" d="m62.34,196.86c0-.93.34-1.71,1.02-2.37.68-.65,1.53-.98,2.55-.98.86,0,1.6.33,2.23,1,.62.67.94,1.45.94,2.34s-.31,1.68-.94,2.34c-.62.67-1.37,1-2.23,1-.99,0-1.83-.33-2.52-1-.69-.67-1.04-1.45-1.04-2.34Zm.13-26c0-.81.32-1.45.95-1.93s1.45-.72,2.44-.72c.86,0,1.57.24,2.14.72s.85,1.12.85,1.93c0,1.74-.04,4.7-.13,8.9-.09,4.2-.13,7.15-.13,8.85,0,.61-.29,1.08-.87,1.41-.58.33-1.2.5-1.86.5-1.85,0-2.78-.64-2.78-1.91,0-1.71-.1-4.66-.3-8.85-.2-4.2-.3-7.16-.3-8.9Z"/><path class="cls-6" d="m210.68,86.49v9.21c0,2.82-1.47,8.01-3.68,11.37-2.88,4.36-4.26,9.53-4.26,14.75v47.81c0,8.7-7.04,15.75-15.74,15.75h-55.68c-8.7,0-15.75-7.05-15.75-15.75v-47.81c0-5.22-1.38-10.39-4.26-14.75-2.21-3.35-3.67-8.55-3.67-11.37v-39.81c0-10.52,8.52-19.04,19.04-19.04h31.41c.24.9.48,1.81.75,2.71.42,1.44.89,2.85,1.39,4.23.71,1.97,1.5,3.88,2.36,5.74,1.37,3,2.94,5.87,4.67,8.56,2.46,3.88,5.25,7.43,8.31,10.61,6.32,6.58,13.75,11.59,21.68,14.62,1.99.76,4.01,1.39,6.04,1.89,2.44.61,4.91,1.03,7.41,1.26Z"/><rect class="cls-2" x="120.33" y="102.44" width="77.66" height="77.66" rx="11.18" ry="11.18"/><path class="cls-1" d="m203.28,85.24v2.99c0,4.68-3.79,8.46-8.46,8.46h-71.31c-4.68,0-8.46-3.79-8.46-8.46v-35.95c0-4.68,3.79-8.46,8.46-8.46h36.72c.71,1.97,1.5,3.88,2.36,5.74,1.37,3,2.94,5.87,4.67,8.56,2.46,3.88,5.25,7.43,8.31,10.61,6.32,6.58,13.75,11.59,21.68,14.62,1.99.76,4.01,1.39,6.04,1.89Z"/><path class="cls-8" d="m197.24,83.35v2.4c0,2.88-2.34,5.21-5.22,5.21h-65.72c-2.88,0-5.21-2.33-5.21-5.21v-30.97c0-2.88,2.33-5.22,5.21-5.22h36.29c1.37,3,2.94,5.87,4.67,8.56,2.46,3.88,5.25,7.43,8.31,10.61,6.32,6.58,13.75,11.59,21.68,14.62Z"/><rect class="cls-4" x="174.19" y="132.35" width="17.83" height="40.8" rx="4.68" ry="4.68"/><path class="cls-13" d="m144.12,114.07v8.46c0,.81-.21,1.58-.57,2.25-.8,1.46-2.34,2.44-4.11,2.44h-8.46c-2.59,0-4.68-2.1-4.68-4.68v-8.46c0-2.42,1.84-4.41,4.2-4.66h0c.15-.02.32-.02.48-.02h8.46c2.59,0,4.68,2.1,4.68,4.68Z"/><path class="cls-13" d="m168.07,114.07v8.46c0,.81-.21,1.58-.57,2.25-.8,1.46-2.34,2.44-4.11,2.44h-8.46c-2.59,0-4.68-2.1-4.68-4.68v-8.46c0-2.42,1.84-4.42,4.2-4.66.15-.02.32-.02.48-.02h8.46c2.59,0,4.68,2.1,4.68,4.68Z"/><path class="cls-13" d="m192.02,114.07v8.46c0,.81-.21,1.58-.57,2.25-.8,1.46-2.34,2.44-4.11,2.44h-8.46c-2.59,0-4.68-2.1-4.68-4.68v-8.46c0-2.42,1.84-4.41,4.2-4.66h0c.16-.02.32-.02.48-.02h8.46c2.59,0,4.68,2.1,4.68,4.68Z"/><path class="cls-13" d="m144.12,137.03v8.46c0,.81-.21,1.58-.57,2.25-.8,1.46-2.34,2.44-4.11,2.44h-8.46c-2.59,0-4.68-2.1-4.68-4.68v-8.46c0-2.42,1.84-4.41,4.2-4.66h0c.15-.02.32-.02.48-.02h8.46c2.59,0,4.68,2.1,4.68,4.68Z"/><path class="cls-13" d="m168.07,137.03v8.46c0,.81-.21,1.58-.57,2.25-.8,1.46-2.34,2.44-4.11,2.44h-8.46c-2.59,0-4.68-2.1-4.68-4.68v-8.46c0-2.42,1.84-4.42,4.2-4.66.15-.02.32-.02.48-.02h8.46c2.59,0,4.68,2.1,4.68,4.68Z"/><path class="cls-13" d="m144.12,160v8.46c0,.81-.21,1.57-.57,2.24-.79,1.46-2.34,2.45-4.11,2.45h-8.46c-2.59,0-4.68-2.1-4.68-4.68v-8.46c0-2.42,1.84-4.41,4.2-4.66h0c.15-.02.32-.02.48-.02h8.46c2.59,0,4.68,2.1,4.68,4.68Z"/><path class="cls-13" d="m168.07,160v8.46c0,.81-.21,1.57-.57,2.24-.8,1.46-2.35,2.45-4.12,2.45h-8.46c-2.59,0-4.68-2.1-4.68-4.68v-8.46c0-2.42,1.84-4.42,4.2-4.66.15-.02.32-.02.48-.02h8.46c2.59,0,4.68,2.1,4.68,4.68Z"/><path class="cls-9" d="m144.12,114.07v8.46c0,.81-.21,1.58-.57,2.25-.16.02-.32.02-.48.02h-8.46c-2.59,0-4.68-2.1-4.68-4.68v-8.46c0-.81.21-1.58.57-2.25h0c.15-.02.32-.02.48-.02h8.46c2.59,0,4.68,2.1,4.68,4.68Z"/><path class="cls-9" d="m168.07,114.07v8.46c0,.81-.21,1.58-.57,2.25-.16.02-.33.02-.49.02h-8.46c-2.59,0-4.68-2.1-4.68-4.68v-8.46c0-.81.21-1.58.57-2.25.15-.02.32-.02.48-.02h8.46c2.59,0,4.68,2.1,4.68,4.68Z"/><path class="cls-9" d="m192.02,114.07v8.46c0,.81-.21,1.58-.57,2.25-.16.02-.33.02-.49.02h-8.46c-2.59,0-4.68-2.1-4.68-4.68v-8.46c0-.81.21-1.58.57-2.25h0c.16-.02.32-.02.48-.02h8.46c2.59,0,4.68,2.1,4.68,4.68Z"/><path class="cls-9" d="m144.12,137.03v8.46c0,.81-.21,1.58-.57,2.25-.16.02-.32.02-.48.02h-8.46c-2.59,0-4.68-2.1-4.68-4.68v-8.46c0-.81.21-1.58.57-2.25h0c.15-.02.32-.02.48-.02h8.46c2.59,0,4.68,2.1,4.68,4.68Z"/><path class="cls-9" d="m168.07,137.03v8.46c0,.81-.21,1.58-.57,2.25-.16.02-.33.02-.49.02h-8.46c-2.59,0-4.68-2.1-4.68-4.68v-8.46c0-.81.21-1.58.57-2.25.15-.02.32-.02.48-.02h8.46c2.59,0,4.68,2.1,4.68,4.68Z"/><path class="cls-9" d="m144.12,160v8.46c0,.81-.21,1.57-.57,2.24-.16.02-.32.02-.48.02h-8.46c-2.59,0-4.68-2.09-4.68-4.68v-8.46c0-.81.21-1.58.57-2.25h0c.15-.02.32-.02.48-.02h8.46c2.59,0,4.68,2.1,4.68,4.68Z"/><path class="cls-9" d="m168.07,160v8.46c0,.81-.21,1.57-.57,2.24-.16.02-.33.02-.5.02h-8.46c-2.59,0-4.68-2.09-4.68-4.68v-8.46c0-.81.21-1.58.57-2.25.15-.02.32-.02.48-.02h8.46c2.59,0,4.68,2.1,4.68,4.68Z"/><path class="cls-7" d="m180.16,132.35v40.8h-1.29c-2.59,0-4.68-2.1-4.68-4.68v-31.43c0-2.59,2.1-4.68,4.68-4.68h1.29Z"/><path class="cls-11" d="m133.02,49.56v41.4h-6.72c-2.88,0-5.21-2.33-5.21-5.21v-30.97c0-2.88,2.33-5.21,5.21-5.21h6.72Z"/><path class="cls-4" d="m175.56,68.72v12.41c0,1.12-.9,2.03-2.02,2.03h-4.71c-1.12,0-2.03-.9-2.03-2.03v-21.76c0-.47.16-.9.44-1.26,2.46,3.88,5.25,7.43,8.31,10.61Z"/><path class="cls-4" d="m161.81,64.27h-5.3c-.09,0-.16,0-.24.02-.84.12-1.49.84-1.49,1.71v15.43c0,.95.77,1.73,1.73,1.73h5.3c.95,0,1.73-.77,1.73-1.73v-15.43c0-.96-.77-1.73-1.73-1.73Z"/><rect class="cls-4" x="142.76" y="71.97" width="8.75" height="11.18" rx="1.33" ry="1.33"/><path class="cls-3" d="m210.68,55.9v30.59c-2.5-.23-4.96-.64-7.41-1.26v-32.96c0-4.68-3.79-8.46-8.46-8.46h-34.59c-.51-1.38-.97-2.79-1.39-4.23-.27-.9-.52-1.81-.75-2.71h33.56c10.52,0,19.04,8.52,19.04,19.04Z"/><path class="cls-6" d="m203.28,52.27v32.96c-2.03-.5-4.05-1.13-6.04-1.89v-28.58c0-2.88-2.34-5.22-5.22-5.22h-29.43c-.86-1.86-1.65-3.77-2.36-5.74h34.59c4.68,0,8.46,3.79,8.46,8.46Z"/><path class="cls-10" d="m197.24,54.77v28.58c-7.93-3.03-15.35-8.04-21.68-14.62v-9.35c0-1.11-.9-2.02-2.02-2.02h-4.71c-.64,0-1.21.3-1.58.76-1.73-2.69-3.29-5.56-4.67-8.56h29.43c2.88,0,5.22,2.33,5.22,5.22Z"/><path class="cls-1" d="m175.56,59.37v9.35c-3.06-3.17-5.85-6.73-8.31-10.61.37-.46.94-.76,1.58-.76h4.71c1.12,0,2.02.9,2.02,2.02Z"/></g></svg>